<svg width="40" height="40" viewBox="0 0 40 40" fill="none" xmlns="http://www.w3.org/2000/svg">
<rect width="40" height="40" rx="20" fill="#2B6BF3"/>
<path fill-rule="evenodd" clip-rule="evenodd" d="M20 14C18.0276 14 16 15.6789 16 17.75V19H15.7143C15.3198 19 15 19.3358 15 19.75V25.25C15 25.6642 15.3198 26 15.7143 26H24.2857C24.6802 26 25 25.6642 25 25.25V19.75C25 19.3358 24.6802 19 24.2857 19H24V17.75C24 15.6789 21.9724 14 20 14ZM20 16C18.8165 16 18 17 18 17.75V19H22V17.75C22 17 21.1835 16 20 16Z" fill="white"/>
</svg>
